<svg width="117" height="24" viewBox="0 0 117 24" fill="none" xmlns="http://www.w3.org/2000/svg">
<g clip-path="url(#clip0_223_148)">
<path fill-rule="evenodd" clip-rule="evenodd" d="M12.6326 20.8755C7.41848 20.8755 3.10304 16.6612 3.10304 11.2636C3.10304 6.33416 6.64696 2.96275 9.4363 3.09046C8.1137 4.41007 7.31674 6.33416 7.31674 8.19865C7.31674 11.3998 9.85174 13.6474 12.6326 13.6474C15.422 13.6474 17.9485 11.3998 17.9485 8.19865C17.9485 6.33416 17.1515 4.41859 15.8289 3.09046C18.6183 2.96275 22.1622 6.33416 22.1622 11.2636C22.1707 16.6697 17.8552 20.8755 12.6326 20.8755ZM12.6326 3.89074C13.5991 4.46967 14.8793 6.14686 14.8793 8.03689C14.8793 9.42462 13.9637 10.5144 12.6326 10.5144C11.293 10.5144 10.3859 9.42462 10.3859 8.03689C10.3859 6.14686 11.6661 4.46967 12.6326 3.89074ZM15.6933 0C14.5487 0 13.4296 0.246896 12.6326 0.578929C11.8441 0.246896 10.7165 0 9.57196 0C4.54435 0 0 4.77616 0 11.3317C0 18.4746 5.81609 24 12.6326 24C19.4491 24 25.2737 18.4746 25.2737 11.3317C25.2737 4.77616 20.7293 0 15.6933 0Z" fill="#0072BC"/>
<path d="M43.468 5.46582V8.07951H47.4358V17.8702H50.2421V8.07951H54.21V5.46582H43.468Z" fill="#0072BC"/>
<path d="M85.6135 15.2225C85.1896 15.2225 84.7148 15.0011 84.7148 13.9369C84.7148 12.8727 85.1896 12.6854 85.6135 12.6854H90.904V15.214H85.6135V15.2225ZM89.6831 5.46582H82.6122V8.09654H89.4966C90.5055 8.09654 90.904 8.55628 90.904 9.74819V10.1824H85.1981C83.0277 10.1824 81.9509 11.2721 81.9509 13.7326V14.32C81.9509 16.8486 83.0701 17.8702 85.3168 17.8702H93.6848V9.71413C93.6848 6.58962 92.6505 5.46582 89.6831 5.46582Z" fill="#0072BC"/>
<path d="M108.92 15.2225C108.496 15.2225 108.022 15.0011 108.022 13.9369C108.022 12.8727 108.496 12.6854 108.92 12.6854H114.211V15.214H108.92V15.2225ZM112.998 5.46582H105.927V8.09654H112.812C113.821 8.09654 114.219 8.55628 114.219 9.74819C114.219 9.7567 114.219 10.0887 114.219 10.1824H108.513C106.343 10.1824 105.266 11.2721 105.266 13.7326V14.32C105.266 16.8486 106.385 17.8702 108.632 17.8702H117V9.71413C117 6.58962 115.966 5.46582 112.998 5.46582Z" fill="#0072BC"/>
<path d="M55.1002 5.46582V8.07951H59.068V17.8702H61.8744V8.07951H65.8422V5.46582H55.1002Z" fill="#0072BC"/>
<path d="M94.2444 5.46582V8.07951H98.2122V17.8702H101.019V8.07951H104.986V5.46582H94.2444Z" fill="#0072BC"/>
<path d="M77.9915 13.5794C77.9915 14.7713 77.593 15.231 76.5841 15.231H72.0652V8.10509H76.5841C77.593 8.10509 77.9915 8.56482 77.9915 9.75673V13.5794ZM80.8656 13.5283V9.81633C80.8656 6.56411 79.6109 5.47437 76.7791 5.47437H69.2589V17.8788H76.9063C79.9161 17.8702 80.8656 16.3718 80.8656 13.5283Z" fill="#0072BC"/>
<path d="M39.5087 14.916C39.4494 14.8053 35.6935 7.46652 35.2357 6.74286C34.71 5.90852 34.0657 5.32959 32.8279 5.32959C31.6833 5.32959 30.3268 5.84041 30.3268 8.59883V17.8787H33.0992V10.1398C33.0992 9.58642 33.0653 8.76059 33.0568 8.59883C33.0483 8.46262 33.0568 8.33491 33.1246 8.29234C33.2009 8.24977 33.2857 8.31788 33.3366 8.42005C33.3874 8.52221 36.872 15.4268 37.6096 16.5932C38.1353 17.4275 38.7796 18.0064 40.0174 18.0064C41.162 18.0064 42.5185 17.4956 42.5185 14.7372V5.46581H39.7461V13.2047C39.7461 13.7581 39.78 14.5839 39.7885 14.7457C39.797 14.8819 39.7885 15.0096 39.7207 15.0522C39.6444 15.0948 39.5681 15.0181 39.5087 14.916Z" fill="#0072BC"/>
</g>
<defs>
<clipPath id="clip0_223_148">
<rect width="117" height="24" fill="white"/>
</clipPath>
</defs>
</svg>
