<svg width="109" height="16" viewBox="0 0 109 16" fill="none" xmlns="http://www.w3.org/2000/svg">
<path d="M16.5291 0.175781V3.43748C16.5291 3.43748 21.1661 3.43748 21.5154 3.43748C21.5154 3.80167 21.5154 15.676 21.5154 15.676H25.0468C25.0468 15.676 25.0468 3.80167 25.0468 3.43748C25.3993 3.43748 30.0331 3.43748 30.0331 3.43748V0.175781H16.5291Z" fill="#6785C1"/>
<path d="M74.6568 0.175781H65.7641V3.46304H74.4229C75.6919 3.46304 76.1886 4.04126 76.1886 5.52356C76.1886 5.52995 76.1886 5.94525 76.1886 6.06984C75.8329 6.06984 69.0136 6.06984 69.0136 6.06984C66.2865 6.06984 64.9277 7.43075 64.9277 10.504V11.2355C64.9277 14.3982 66.3345 15.6697 69.161 15.6697H79.6815V5.48203C79.6815 1.57822 78.3901 0.175781 74.6568 0.175781ZM69.5295 12.36C68.9943 12.36 68.3951 12.0885 68.3951 10.7595C68.3951 9.43057 68.9879 9.19737 69.5295 9.19737C69.5295 9.19737 75.8297 9.19737 76.1854 9.19737V12.36C75.8329 12.36 69.5295 12.36 69.5295 12.36Z" fill="#6785C1"/>
<path d="M103.978 0.175781H95.0857V3.46304H103.741C105.013 3.46304 105.507 4.04126 105.507 5.52356C105.507 5.52995 105.507 5.94525 105.507 6.06984C105.151 6.06984 98.3319 6.06984 98.3319 6.06984C95.6048 6.06984 94.2461 7.43075 94.2461 10.504V11.2355C94.2461 14.3982 95.6529 15.6697 98.4793 15.6697H109V5.48523C109.006 1.58141 107.712 0.175781 103.978 0.175781ZM98.851 12.36C98.3159 12.36 97.7166 12.0885 97.7166 10.7595C97.7166 9.42738 98.3095 9.19737 98.851 9.19737C98.851 9.19737 105.151 9.19737 105.507 9.19737V12.36C105.154 12.36 98.851 12.36 98.851 12.36Z" fill="#6785C1"/>
<path d="M31.158 0.175781V3.43748C31.158 3.43748 35.795 3.43748 36.1443 3.43748C36.1443 3.80167 36.1443 15.676 36.1443 15.676H39.6789C39.6789 15.676 39.6789 3.80167 39.6789 3.43748C40.0314 3.43748 44.6684 3.43748 44.6684 3.43748V0.175781H31.158Z" fill="#6785C1"/>
<path d="M80.3928 0.175781V3.43748C80.3928 3.43748 85.0298 3.43748 85.3791 3.43748C85.3791 3.80167 85.3791 15.676 85.3791 15.676H88.9138C88.9138 15.676 88.9138 3.80167 88.9138 3.43748C89.263 3.43748 93.9 3.43748 93.9 3.43748V0.175781H80.3928Z" fill="#6785C1"/>
<path d="M63.5592 10.242V5.60345C63.5592 1.5431 61.9794 0.172607 58.4159 0.172607H48.9592V15.6665H58.5793C62.3639 15.6697 63.5592 13.7944 63.5592 10.242ZM59.9509 10.3091C59.9509 11.7946 59.4478 12.3696 58.1788 12.3696C58.1788 12.3696 52.8432 12.3696 52.4907 12.3696V3.47264C52.8432 3.47264 58.1788 3.47264 58.1788 3.47264C59.4478 3.47264 59.9509 4.05087 59.9509 5.53636C59.9509 5.54275 59.9509 10.3091 59.9509 10.3091Z" fill="#6785C1"/>
<path d="M11.546 11.9798C11.4723 11.836 6.75201 2.6707 6.17519 1.76662C5.51185 0.725177 4.70109 0 3.14688 0C1.70483 0 0 0.638922 0 4.0891V15.676H3.48336C3.48336 15.676 3.48336 6.70549 3.48336 6.01226C3.48336 5.31903 3.4385 4.29036 3.43209 4.08271C3.42568 3.9134 3.43209 3.75047 3.51861 3.70256C3.62116 3.64505 3.7205 3.7377 3.78779 3.86548C3.85509 3.99327 8.22932 12.6219 9.15864 14.0787C9.82519 15.1201 10.6359 15.8453 12.1869 15.8453C13.629 15.8453 15.3338 15.2064 15.3338 11.7562V0.169314H11.8505C11.8505 0.169314 11.8505 9.13979 11.8505 9.83302C11.8505 10.5262 11.8921 11.5549 11.9017 11.7626C11.9082 11.9319 11.9017 12.0948 11.8152 12.1427C11.7159 12.2002 11.6165 12.1076 11.546 11.9798Z" fill="#6785C1"/>
</svg>
