<svg width="16" height="16" viewBox="0 0 16 16" fill="none" xmlns="http://www.w3.org/2000/svg">
<path d="M12.5 2.01562C12.1172 2.01562 11.7422 2.16406 11.4531 2.45312L6.5 7.39062L6.39062 7.5L6.35938 7.65625L6.01562 9.40625L5.85938 10.1406L6.59375 9.98438L8.34375 9.64062L8.5 9.60938L8.60938 9.5L13.5469 4.54688C14.123 3.9707 14.123 3.0293 13.5469 2.45312C13.2578 2.16406 12.8828 2.01562 12.5 2.01562ZM12.5 2.98438C12.6172 2.98438 12.7324 3.04492 12.8438 3.15625C13.0664 3.37891 13.0664 3.62109 12.8438 3.84375L8 8.6875L7.14062 8.85938L7.3125 8L12.1562 3.15625C12.2676 3.04492 12.3828 2.98438 12.5 2.98438ZM2 4V14H12V7.40625L11 8.40625V13H3V5H7.59375L8.59375 4H2Z" fill="#070F26"/>
</svg>
