<svg width="17" height="17" viewBox="0 0 17 17" fill="none" xmlns="http://www.w3.org/2000/svg">
<path d="M6.375 1.0625C4.32678 1.0625 2.65625 2.73303 2.65625 4.78125C2.65625 6.06165 3.30994 7.19885 4.2998 7.86914C2.40515 8.68262 1.0625 10.5627 1.0625 12.75H2.125C2.125 10.3967 4.02173 8.5 6.375 8.5C7.10547 8.5 7.78613 8.69092 8.38379 9.01465C7.79443 9.74512 7.4375 10.679 7.4375 11.6875C7.4375 14.0283 9.34668 15.9375 11.6875 15.9375C14.0283 15.9375 15.9375 14.0283 15.9375 11.6875C15.9375 9.34668 14.0283 7.4375 11.6875 7.4375C10.7599 7.4375 9.89661 7.74255 9.19727 8.25098C8.96277 8.10364 8.70752 7.97913 8.4502 7.86914C9.44006 7.19885 10.0938 6.06165 10.0938 4.78125C10.0938 2.73303 8.42322 1.0625 6.375 1.0625ZM6.375 2.125C7.84839 2.125 9.03125 3.30786 9.03125 4.78125C9.03125 6.25464 7.84839 7.4375 6.375 7.4375C4.90161 7.4375 3.71875 6.25464 3.71875 4.78125C3.71875 3.30786 4.90161 2.125 6.375 2.125ZM11.6875 8.5C13.4535 8.5 14.875 9.92151 14.875 11.6875C14.875 13.4535 13.4535 14.875 11.6875 14.875C9.92151 14.875 8.5 13.4535 8.5 11.6875C8.5 9.92151 9.92151 8.5 11.6875 8.5ZM13.4307 10.2432L11.6875 11.9863L10.4756 10.7744L9.71191 11.5381L11.3057 13.1318L11.6875 13.4971L12.0693 13.1318L14.1943 11.0068L13.4307 10.2432Z" fill="#070F26"/>
</svg>
