<svg width="18" height="18" viewBox="0 0 18 18" fill="none" xmlns="http://www.w3.org/2000/svg">
<path d="M9 2.25C6.65552 2.25 4.58569 3.43872 3.375 5.25586V3.375H2.25V7.3125H6.1875V6.1875H4.14844C5.11963 4.51099 6.91699 3.375 9 3.375C12.1135 3.375 14.625 5.88647 14.625 9C14.625 12.1135 12.1135 14.625 9 14.625C5.88647 14.625 3.375 12.1135 3.375 9H2.25C2.25 12.7222 5.27783 15.75 9 15.75C12.7222 15.75 15.75 12.7222 15.75 9C15.75 5.27783 12.7222 2.25 9 2.25ZM8.4375 4.5V9.5625H12.375V8.4375H9.5625V4.5H8.4375Z" fill="#070F26"/>
</svg>
