<svg width="15" height="14" viewBox="0 0 15 14" fill="none" xmlns="http://www.w3.org/2000/svg">
<path d="M2.81737 12.7501L2.50502 12.3597H2.50502L2.81737 12.7501ZM4.40019 11.4839L4.08784 11.0934L4.40019 11.4839ZM4.54756 11.1366L4.71201 10.6644L4.54756 11.1366ZM1.39835 7.83758L0.918984 7.97975L1.39835 7.83758ZM1.69263 5.86767C1.69263 3.38239 3.70735 1.36768 6.19263 1.36768V0.367676C3.15506 0.367676 0.692627 2.83011 0.692627 5.86767H1.69263ZM1.69263 6.41351V5.86767H0.692627V6.41351H1.69263ZM1.87771 7.69541C1.75739 7.28974 1.69263 6.85963 1.69263 6.41351H0.692627C0.692627 6.95691 0.771586 7.48276 0.918984 7.97975L1.87771 7.69541ZM1.69268 11.9693V7.93768H0.692676V11.9693H1.69268ZM2.50502 12.3597C2.17764 12.6216 1.69268 12.3885 1.69268 11.9693H0.692676C0.692676 13.227 2.14757 13.9263 3.12972 13.1406L2.50502 12.3597ZM4.08784 11.0934L2.50502 12.3597L3.12972 13.1406L4.71254 11.8743L4.08784 11.0934ZM6.19263 10.9135C5.67304 10.9135 5.17504 10.8256 4.71201 10.6644L4.38311 11.6088C4.95045 11.8063 5.55956 11.9135 6.19263 11.9135V10.9135ZM9.37491 10.9135H6.19263V11.9135H9.37491V10.9135ZM13.8749 6.41351C13.8749 8.89879 11.8602 10.9135 9.37491 10.9135V11.9135C12.4125 11.9135 14.8749 9.45108 14.8749 6.41351H13.8749ZM13.8749 5.86767V6.41351H14.8749V5.86767H13.8749ZM9.37491 1.36768C11.8602 1.36768 13.8749 3.38239 13.8749 5.86767H14.8749C14.8749 2.83011 12.4125 0.367676 9.37491 0.367676V1.36768ZM6.19263 1.36768H9.37491V0.367676H6.19263V1.36768ZM4.71254 11.8743C4.98556 11.6559 5.01755 11.2524 4.78236 10.9936L4.04242 11.6663C3.88943 11.498 3.91024 11.2355 4.08784 11.0934L4.71254 11.8743ZM1.66314 7.5625C1.3202 7.18527 0.692676 7.42788 0.692676 7.93768H1.69268C1.69268 8.34191 1.19511 8.53427 0.923197 8.23517L1.66314 7.5625ZM4.78236 10.9936C4.94464 11.1721 4.88203 11.3844 4.81843 11.4747C4.75608 11.5632 4.59327 11.6819 4.38311 11.6088L4.71201 10.6644C4.3923 10.553 4.12288 10.7256 4.00082 10.8989C3.87752 11.074 3.80211 11.402 4.04242 11.6663L4.78236 10.9936ZM0.918984 7.97975C0.848943 7.74359 0.984985 7.55356 1.11601 7.47691C1.24877 7.39926 1.49091 7.37304 1.66314 7.5625L0.923197 8.23517C1.13798 8.47143 1.4417 8.44492 1.62091 8.34009C1.79838 8.23628 1.96574 7.99222 1.87771 7.69541L0.918984 7.97975Z" fill="#999999"/>
<circle cx="4.52116" cy="6.17326" r="0.823893" fill="#999999"/>
<circle cx="7.81657" cy="6.17326" r="0.823893" fill="#999999"/>
<circle cx="11.112" cy="6.17326" r="0.823893" fill="#999999"/>
</svg>
