<svg width="92" height="25" viewBox="0 0 92 25" fill="none" xmlns="http://www.w3.org/2000/svg">
<path fill-rule="evenodd" clip-rule="evenodd" d="M45.1361 1.71065C45.4972 1.42978 46.0028 1.42978 46.3639 1.71065L55.3639 8.71065C55.6075 8.9001 55.75 9.19141 55.75 9.5V20.5C55.75 21.2957 55.4339 22.0587 54.8713 22.6213C54.3087 23.1839 53.5457 23.5 52.75 23.5H38.75C37.9543 23.5 37.1913 23.1839 36.6287 22.6213C36.0661 22.0587 35.75 21.2957 35.75 20.5V9.5C35.75 9.19141 35.8925 8.9001 36.1361 8.71065L45.1361 1.71065ZM37.75 9.98908V20.5C37.75 20.7652 37.8554 21.0196 38.0429 21.2071C38.2304 21.3946 38.4848 21.5 38.75 21.5H52.75C53.0152 21.5 53.2696 21.3946 53.4571 21.2071C53.6446 21.0196 53.75 20.7652 53.75 20.5V9.98908L45.75 3.76686L37.75 9.98908Z" fill="#F0F0F0"/>
<path fill-rule="evenodd" clip-rule="evenodd" d="M41.75 12.5C41.75 11.9477 42.1977 11.5 42.75 11.5H48.75C49.3023 11.5 49.75 11.9477 49.75 12.5V22.5C49.75 23.0523 49.3023 23.5 48.75 23.5C48.1977 23.5 47.75 23.0523 47.75 22.5V13.5H43.75V22.5C43.75 23.0523 43.3023 23.5 42.75 23.5C42.1977 23.5 41.75 23.0523 41.75 22.5V12.5Z" fill="#F0F0F0"/>
</svg>
