<svg width="18" height="18" viewBox="0 0 18 18" fill="none" xmlns="http://www.w3.org/2000/svg">
<path d="M16.2599 12.72L13.9124 7.23747C13.1174 5.37747 11.6549 5.30247 10.6724 7.07247L9.25494 9.62997C8.53494 10.9275 7.19244 11.04 6.26244 9.87747L6.09744 9.66747C5.12994 8.45247 3.76494 8.60247 3.06744 9.98997L1.77744 12.5775C0.869944 14.3775 2.18244 16.5 4.19244 16.5H13.7624C15.7124 16.5 17.0249 14.5125 16.2599 12.72Z" stroke="#999999" stroke-width="1.5" stroke-linecap="round" stroke-linejoin="round"/>
<path d="M5.22754 6C6.47018 6 7.47754 4.99264 7.47754 3.75C7.47754 2.50736 6.47018 1.5 5.22754 1.5C3.9849 1.5 2.97754 2.50736 2.97754 3.75C2.97754 4.99264 3.9849 6 5.22754 6Z" stroke="#999999" stroke-width="1.5" stroke-linecap="round" stroke-linejoin="round"/>
</svg>
