<svg width="25" height="25" viewBox="0 0 25 25" fill="none" xmlns="http://www.w3.org/2000/svg">
<path d="M12.3999 17V19.1" stroke="#F0F0F0" stroke-width="1.5" stroke-linecap="round" stroke-linejoin="round"/>
<path d="M7.3999 22.5H17.3999V21.5C17.3999 20.4 16.4999 19.5 15.3999 19.5H9.3999C8.2999 19.5 7.3999 20.4 7.3999 21.5V22.5V22.5Z" stroke="#F0F0F0" stroke-width="1.5" stroke-miterlimit="10"/>
<path d="M6.3999 22.5H18.3999" stroke="#F0F0F0" stroke-width="1.5" stroke-linecap="round" stroke-linejoin="round"/>
<path d="M12.25 16.5C8.38 16.5 5.25 13.37 5.25 9.5V6.5C5.25 4.29 7.04 2.5 9.25 2.5H15.25C17.46 2.5 19.25 4.29 19.25 6.5V9.5C19.25 13.37 16.12 16.5 12.25 16.5Z" stroke="#F0F0F0" stroke-width="1.5" stroke-linecap="round" stroke-linejoin="round"/>
<path d="M5.72004 12.1501C4.97004 11.9101 4.31004 11.4701 3.79004 10.9501C2.89004 9.9501 2.29004 8.7501 2.29004 7.3501C2.29004 5.9501 3.39004 4.8501 4.79004 4.8501H5.44004C5.24004 5.3101 5.14004 5.8201 5.14004 6.3501V9.3501C5.14004 10.3501 5.35004 11.2901 5.72004 12.1501Z" stroke="#F0F0F0" stroke-width="1.5" stroke-linecap="round" stroke-linejoin="round"/>
<path d="M18.78 12.1501C19.53 11.9101 20.19 11.4701 20.71 10.9501C21.61 9.9501 22.21 8.7501 22.21 7.3501C22.21 5.9501 21.11 4.8501 19.71 4.8501H19.06C19.26 5.3101 19.36 5.8201 19.36 6.3501V9.3501C19.36 10.3501 19.15 11.2901 18.78 12.1501Z" stroke="#F0F0F0" stroke-width="1.5" stroke-linecap="round" stroke-linejoin="round"/>
</svg>
