<svg width="16" height="16" viewBox="0 0 16 16" fill="none" xmlns="http://www.w3.org/2000/svg">
<path d="M5.75 3L5.59375 3.20312L5 4H1.5V13H14.5V4H11L10.4062 3.20312L10.25 3H5.75ZM6.25 4H9.75L10.3438 4.79688L10.5 5H13.5V12H2.5V5H5.5L5.65625 4.79688L6.25 4ZM4 5.5C3.72461 5.5 3.5 5.72461 3.5 6C3.5 6.27539 3.72461 6.5 4 6.5C4.27539 6.5 4.5 6.27539 4.5 6C4.5 5.72461 4.27539 5.5 4 5.5ZM8 5.5C6.34961 5.5 5 6.84961 5 8.5C5 10.1504 6.34961 11.5 8 11.5C9.65039 11.5 11 10.1504 11 8.5C11 6.84961 9.65039 5.5 8 5.5ZM8 6.5C9.11133 6.5 10 7.38867 10 8.5C10 9.61133 9.11133 10.5 8 10.5C6.88867 10.5 6 9.61133 6 8.5C6 7.38867 6.88867 6.5 8 6.5Z" fill="white"/>
</svg>
