<svg width="148" height="42" viewBox="0 0 148 42" fill="none" xmlns="http://www.w3.org/2000/svg">
<path d="M29.0114 10.7012V15.0087H34.9124V31.1871H39.0895V15.0087H45.0095V10.7012H29.0114Z" fill="#FFFFFC"/>
<path d="M97.8832 10.7012H87.3457V15.0467H97.5984C99.1173 15.0467 99.6907 15.8111 99.6907 17.7705V18.4927H91.1961C87.9646 18.4927 86.3546 20.2917 86.3546 24.3585V25.334C86.3546 29.5106 88.0216 31.1914 91.3708 31.1914H103.837V17.7325C103.837 12.5551 102.299 10.7012 97.8832 10.7012ZM91.8075 26.8078C91.1733 26.8078 90.4632 26.4489 90.4632 24.6963C90.4632 22.9438 91.1657 22.6313 91.8075 22.6313H99.6983V26.8121L91.8075 26.8078Z" fill="#FFFFFC"/>
<path d="M132.628 10.7012H122.091V15.0467H132.344C133.863 15.0467 134.436 15.8111 134.436 17.7705V18.4927H125.941C122.71 18.4927 121.1 20.2917 121.1 24.3585V25.334C121.1 29.5106 122.767 31.1914 126.12 31.1914H138.586V17.7325C138.586 12.5551 137.052 10.7012 132.628 10.7012ZM126.553 26.8078C125.919 26.8078 125.209 26.4489 125.209 24.6963C125.209 22.9438 125.911 22.6313 126.553 22.6313H134.444V26.8121L126.553 26.8078Z" fill="#FFFFFC"/>
<path d="M46.3385 10.7012V15.0087H52.2471V31.1871H56.4241V15.0087H62.3328V10.7012H46.3385Z" fill="#FFFFFC"/>
<path d="M104.68 10.7012V15.0087H110.589V31.1871H114.766V15.0087H120.675V10.7012H104.68Z" fill="#FFFFFC"/>
<path d="M84.7331 24.008V17.8762C84.7331 12.5087 82.861 10.697 78.6384 10.697H67.4326V31.1788H78.8245C83.3129 31.183 84.7331 28.7125 84.7331 24.008ZM80.4573 24.0967C80.4573 26.0604 79.8649 26.8248 78.3612 26.8248H71.621V15.0636H78.3764C79.8953 15.0636 80.4725 15.828 80.4725 17.7875L80.4573 24.0967Z" fill="#FFFFFC"/>
<path d="M23.099 26.3053C23.0117 26.1195 17.403 13.9994 16.7347 12.7916C15.9487 11.4276 14.9879 10.4731 13.1463 10.4731C11.4413 10.4731 9.4173 11.3135 9.4173 15.8744V31.1956H13.545V18.4167C13.545 17.5003 13.4918 16.1405 13.4804 15.8829C13.469 15.6253 13.4804 15.4606 13.5829 15.3761C13.6855 15.2916 13.8222 15.4225 13.9019 15.5957C13.9817 15.7688 19.165 27.1584 20.2776 29.0799C21.0674 30.4608 22.0281 31.4152 23.866 31.4152C25.5748 31.4152 27.5988 30.5706 27.5988 26.0097V10.6927H23.4597V23.4717C23.4597 24.3881 23.5091 25.7479 23.5205 26.0055C23.5319 26.2631 23.5205 26.4278 23.418 26.5123C23.3154 26.5967 23.1825 26.4742 23.099 26.3053Z" fill="#FFFFFC"/>
</svg>
