<svg width="169" height="25" viewBox="0 0 169 25" fill="none" xmlns="http://www.w3.org/2000/svg">
<path d="M25.6277 0.277222V5.42339C25.6277 5.42339 32.8172 5.42339 33.3588 5.42339C33.3588 5.99799 33.3588 24.7329 33.3588 24.7329H38.8341C38.8341 24.7329 38.8341 5.99799 38.8341 5.42339C39.3807 5.42339 46.5652 5.42339 46.5652 5.42339V0.277222H25.6277Z" fill="#6785C1"/>
<path d="M115.752 0.277222H101.964V5.46371H115.389C117.357 5.46371 118.127 6.37601 118.127 8.71472C118.127 8.7248 118.127 9.38005 118.127 9.57662C117.576 9.57662 107.003 9.57662 107.003 9.57662C102.774 9.57662 100.668 11.7238 100.668 16.5726V17.7268C100.668 22.7167 102.849 24.7228 107.231 24.7228H123.543V8.6492C123.543 2.48992 121.54 0.277222 115.752 0.277222ZM107.802 19.501C106.973 19.501 106.044 19.0726 106.044 16.9758C106.044 14.879 106.963 14.5111 107.802 14.5111C107.802 14.5111 117.571 14.5111 118.122 14.5111V19.501C117.576 19.501 107.802 19.501 107.802 19.501Z" fill="#6785C1"/>
<path d="M161.214 0.277222H147.427V5.46371H160.847C162.819 5.46371 163.584 6.37601 163.584 8.71472C163.584 8.7248 163.584 9.38005 163.584 9.57662C163.033 9.57662 152.46 9.57662 152.46 9.57662C148.231 9.57662 146.125 11.7238 146.125 16.5726V17.7268C146.125 22.7167 148.306 24.7228 152.688 24.7228H169V8.65424C169.01 2.49496 167.003 0.277222 161.214 0.277222ZM153.265 19.501C152.435 19.501 151.506 19.0726 151.506 16.9758C151.506 14.874 152.425 14.5111 153.265 14.5111C153.265 14.5111 163.033 14.5111 163.584 14.5111V19.501C163.038 19.501 153.265 19.501 153.265 19.501Z" fill="#6785C1"/>
<path d="M48.3091 0.277222V5.42339C48.3091 5.42339 55.4986 5.42339 56.0402 5.42339C56.0402 5.99799 56.0402 24.7329 56.0402 24.7329H61.5205C61.5205 24.7329 61.5205 5.99799 61.5205 5.42339C62.067 5.42339 69.2565 5.42339 69.2565 5.42339V0.277222H48.3091Z" fill="#6785C1"/>
<path d="M124.646 0.277222V5.42339C124.646 5.42339 131.835 5.42339 132.377 5.42339C132.377 5.99799 132.377 24.7329 132.377 24.7329H137.857C137.857 24.7329 137.857 5.99799 137.857 5.42339C138.399 5.42339 145.588 5.42339 145.588 5.42339V0.277222H124.646Z" fill="#6785C1"/>
<path d="M98.546 16.1593V8.84077C98.546 2.43452 96.0965 0.272217 90.5715 0.272217H75.9094V24.7178H90.8249C96.6928 24.7228 98.546 21.7642 98.546 16.1593ZM92.9515 16.2652C92.9515 18.6089 92.1714 19.5162 90.2039 19.5162C90.2039 19.5162 81.9312 19.5162 81.3847 19.5162V5.47887C81.9312 5.47887 90.2039 5.47887 90.2039 5.47887C92.1714 5.47887 92.9515 6.39117 92.9515 8.73492C92.9515 8.745 92.9515 16.2652 92.9515 16.2652Z" fill="#6785C1"/>
<path d="M17.9017 18.9012C17.7874 18.6744 10.4687 4.21371 9.57438 2.7873C8.54589 1.14415 7.28885 0 4.87911 0C2.64326 0 0 1.00806 0 6.45161V24.7329H5.40081C5.40081 24.7329 5.40081 10.5796 5.40081 9.48589C5.40081 8.39214 5.33125 6.76915 5.32131 6.44153C5.31137 6.1744 5.32131 5.91734 5.45546 5.84173C5.61445 5.75101 5.76848 5.89718 5.87282 6.09879C5.97716 6.3004 12.7592 19.9143 14.2001 22.2127C15.2336 23.8558 16.4906 25 18.8954 25C21.1312 25 23.7745 23.9919 23.7745 18.5484V0.267137H18.3737C18.3737 0.267137 18.3737 14.4204 18.3737 15.5141C18.3737 16.6079 18.4383 18.2308 18.4532 18.5585C18.4631 18.8256 18.4532 19.0827 18.319 19.1583C18.165 19.249 18.011 19.1028 17.9017 18.9012Z" fill="#6785C1"/>
</svg>
