<svg width="32" height="32" viewBox="0 0 32 32" fill="none" xmlns="http://www.w3.org/2000/svg">
<path d="M16.16 17.04C16.0667 17.0266 15.9467 17.0266 15.84 17.04C13.4933 16.96 11.6267 15.04 11.6267 12.68C11.6267 10.2666 13.5733 8.30664 16 8.30664C18.4133 8.30664 20.3733 10.2666 20.3733 12.68C20.36 15.04 18.5067 16.96 16.16 17.04Z" stroke="#070F26" stroke-width="1.5" stroke-linecap="round" stroke-linejoin="round"/>
<path d="M24.9867 25.84C22.6133 28.0133 19.4667 29.3333 16 29.3333C12.5333 29.3333 9.38667 28.0133 7.01334 25.84C7.14667 24.5866 7.94667 23.36 9.37334 22.4C13.0267 19.9733 19 19.9733 22.6267 22.4C24.0533 23.36 24.8533 24.5866 24.9867 25.84Z" stroke="#070F26" stroke-width="1.5" stroke-linecap="round" stroke-linejoin="round"/>
<path d="M16 29.3333C23.3638 29.3333 29.3333 23.3638 29.3333 16C29.3333 8.63616 23.3638 2.66663 16 2.66663C8.63619 2.66663 2.66666 8.63616 2.66666 16C2.66666 23.3638 8.63619 29.3333 16 29.3333Z" stroke="#070F26" stroke-width="1.5" stroke-linecap="round" stroke-linejoin="round"/>
</svg>
