<svg width="21" height="21" viewBox="0 0 21 21" fill="none" xmlns="http://www.w3.org/2000/svg">
<path d="M16.4062 2.64551C15.9038 2.64551 15.4116 2.84033 15.0322 3.21973L8.53125 9.7002L8.3877 9.84375L8.34668 10.0488L7.89551 12.3457L7.69043 13.3096L8.6543 13.1045L10.9512 12.6533L11.1562 12.6123L11.2998 12.4688L17.7803 5.96777C18.5365 5.21155 18.5365 3.97595 17.7803 3.21973C17.4009 2.84033 16.9087 2.64551 16.4062 2.64551ZM16.4062 3.91699C16.5601 3.91699 16.7113 3.99646 16.8574 4.14258C17.1497 4.43481 17.1497 4.75269 16.8574 5.04492L10.5 11.4023L9.37207 11.6279L9.59766 10.5L15.9551 4.14258C16.1012 3.99646 16.2524 3.91699 16.4062 3.91699ZM2.625 5.25V18.375H15.75V9.7207L14.4375 11.0332V17.0625H3.9375V6.5625H9.9668L11.2793 5.25H2.625Z" fill="#070F26"/>
</svg>
