<svg width="36" height="36" viewBox="0 0 36 36" fill="none" xmlns="http://www.w3.org/2000/svg">
<path d="M17.9551 33C26.2393 33 32.9551 26.2843 32.9551 18C32.9551 9.71573 26.2393 3 17.9551 3C9.67081 3 2.95508 9.71573 2.95508 18C2.95508 26.2843 9.67081 33 17.9551 33Z" stroke="#070F26" stroke-width="1.5" stroke-linecap="round" stroke-linejoin="round"/>
<path d="M16.08 21.795V14.205C16.08 13.485 15.78 13.2 15.015 13.2H13.065C12.3 13.2 12 13.485 12 14.205V21.795C12 22.515 12.3 22.8 13.065 22.8H15C15.78 22.8 16.08 22.515 16.08 21.795Z" stroke="#070F26" stroke-width="1.5" stroke-linecap="round" stroke-linejoin="round"/>
<path d="M24.0001 21.795V14.205C24.0001 13.485 23.7001 13.2 22.9351 13.2H21.0001C20.2351 13.2 19.9351 13.485 19.9351 14.205V21.795C19.9351 22.515 20.2351 22.8 21.0001 22.8H22.9351C23.7001 22.8 24.0001 22.515 24.0001 21.795Z" stroke="#070F26" stroke-width="1.5" stroke-linecap="round" stroke-linejoin="round"/>
</svg>
